<?xml version="1.0" encoding="UTF-8" standalone="no"?>
<!-- Generator: Adobe Illustrator 17.0.1, SVG Export Plug-In . SVG Version: 6.00 Build 0)  -->

<svg
   xmlns:dc="http://purl.org/dc/elements/1.1/"
   xmlns:cc="http://creativecommons.org/ns#"
   xmlns:rdf="http://www.w3.org/1999/02/22-rdf-syntax-ns#"
   xmlns:svg="http://www.w3.org/2000/svg"
   xmlns="http://www.w3.org/2000/svg"
   xmlns:sodipodi="http://sodipodi.sourceforge.net/DTD/sodipodi-0.dtd"
   xmlns:inkscape="http://www.inkscape.org/namespaces/inkscape"
   version="1.1"
   id="Layer_1"
   x="0px"
   y="0px"
   width="185px"
   height="188px"
   viewBox="0 0 185 188"
   enable-background="new 0 0 185 188"
   xml:space="preserve"
   sodipodi:docname="logosroboto.svg"
   inkscape:version="0.92.3 (2405546, 2018-03-11)"><metadata
   id="metadata235"><rdf:RDF><cc:Work
       rdf:about=""><dc:format>image/svg+xml</dc:format><dc:type
         rdf:resource="http://purl.org/dc/dcmitype/StillImage" /><dc:title></dc:title></cc:Work></rdf:RDF></metadata><defs
   id="defs233" /><sodipodi:namedview
   pagecolor="#ffffff"
   bordercolor="#666666"
   borderopacity="1"
   objecttolerance="10"
   gridtolerance="10"
   guidetolerance="10"
   inkscape:pageopacity="0"
   inkscape:pageshadow="2"
   inkscape:window-width="1366"
   inkscape:window-height="714"
   id="namedview231"
   showgrid="false"
   inkscape:zoom="2.5106383"
   inkscape:cx="29.722005"
   inkscape:cy="94.657577"
   inkscape:window-x="1280"
   inkscape:window-y="283"
   inkscape:window-maximized="1"
   inkscape:current-layer="Layer_1" />
<g
   id="g76">
	
	
	<g
   id="g46">
		
		
		
	</g>
	
		<radialGradient
   id="SVGID_1_"
   cx="-310.583"
   cy="-60.055"
   r="20.1137"
   gradientTransform="matrix(0.498 0 0 0.498 172.2891 79.7388)"
   gradientUnits="userSpaceOnUse">
		<stop
   offset="0"
   style="stop-color:#FFCF4F"
   id="stop48" />
		<stop
   offset="1"
   style="stop-color:#F4C236"
   id="stop50" />
	</radialGradient>
	<path
   fill="url(#SVGID_1_)"
   d="M8.91,61h6.791c1.607,0,3.604-1.128,4.432-2.511l5.72-9.519c0.677-1.396,0.653-3.426-0.119-4.713   l-3.378-5.592L8.91,61z"
   id="path53" />
	
		<radialGradient
   id="SVGID_2_"
   cx="-322.6347"
   cy="-70.2695"
   r="27.6582"
   gradientTransform="matrix(0.498 0 0 0.498 172.2891 79.7388)"
   gradientUnits="userSpaceOnUse">
		<stop
   offset="0"
   style="stop-color:#08A960"
   id="stop55" />
		<stop
   offset="1"
   style="stop-color:#07914B"
   id="stop57" />
	</radialGradient>
	<path
   fill="url(#SVGID_2_)"
   d="M16.209,33.514L1.108,58.763C0.524,60.011,1.131,61,2.629,61H8.91l13.446-22.335l-6.146-10.173   C17.039,29.87,17.039,32.13,16.209,33.514"
   id="path60" />
	
		<radialGradient
   id="SVGID_3_"
   cx="-313.1831"
   cy="-109.9511"
   r="40.54"
   gradientTransform="matrix(0.498 0 0 0.498 172.2891 79.7388)"
   gradientUnits="userSpaceOnUse">
		<stop
   offset="0"
   style="stop-color:#567FC0"
   id="stop62" />
		<stop
   offset="1"
   style="stop-color:#557FC0"
   id="stop64" />
	</radialGradient>
	<path
   fill="url(#SVGID_3_)"
   d="M2.629,1C1.015,1,0.375,2.133,1.205,3.511l24.529,40.745c0.772,1.288,0.795,3.317,0.119,4.713   l5.963-9.925L8.914,1H2.629z"
   id="path67" />
	
		<radialGradient
   id="SVGID_4_"
   cx="-301.1191"
   cy="-119.9164"
   r="33.0584"
   gradientTransform="matrix(0.498 0 0 0.498 172.2891 79.7388)"
   gradientUnits="userSpaceOnUse">
		<stop
   offset="0"
   style="stop-color:#E14C40"
   id="stop69" />
		<stop
   offset="1"
   style="stop-color:#CD392D"
   id="stop71" />
	</radialGradient>
	<path
   fill="url(#SVGID_4_)"
   d="M8.914,1l22.903,38.045l3.321-5.53c0.83-1.385,0.83-3.645,0-5.023L20.133,3.511   C19.305,2.133,17.308,1,15.701,1H8.914z"
   id="path74" />
</g>
<g
   id="g152">
	
	
	
	
		<radialGradient
   id="SVGID_5_"
   cx="-310.583"
   cy="66.4552"
   r="20.1137"
   gradientTransform="matrix(0.498 0 0 0.498 172.2891 79.7388)"
   gradientUnits="userSpaceOnUse">
		<stop
   offset="0"
   style="stop-color:#CCCCCC"
   id="stop124" />
		<stop
   offset="1"
   style="stop-color:#C0C0C0"
   id="stop126" />
	</radialGradient>
	<path
   fill="url(#SVGID_5_)"
   d="M8.91,124h6.791c1.607,0,3.604-1.128,4.432-2.511l5.72-9.519c0.677-1.396,0.653-3.426-0.119-4.713   l-3.378-5.592L8.91,124z"
   id="path129" />
	
		<radialGradient
   id="SVGID_6_"
   cx="-322.6347"
   cy="56.2407"
   r="27.6582"
   gradientTransform="matrix(0.498 0 0 0.498 172.2891 79.7388)"
   gradientUnits="userSpaceOnUse">
		<stop
   offset="0"
   style="stop-color:#A0A0A0"
   id="stop131" />
		<stop
   offset="1"
   style="stop-color:#7B7B7B"
   id="stop133" />
	</radialGradient>
	<path
   fill="url(#SVGID_6_)"
   d="M16.209,96.514L1.108,121.763C0.524,123.011,1.131,124,2.629,124H8.91l13.446-22.335l-6.146-10.173   C17.039,92.87,17.039,95.13,16.209,96.514"
   id="path136" />
	
		<radialGradient
   id="SVGID_7_"
   cx="-313.1831"
   cy="16.559"
   r="40.54"
   gradientTransform="matrix(0.498 0 0 0.498 172.2891 79.7388)"
   gradientUnits="userSpaceOnUse">
		<stop
   offset="0"
   style="stop-color:#848484"
   id="stop138" />
		<stop
   offset="1"
   style="stop-color:#838383"
   id="stop140" />
	</radialGradient>
	<path
   fill="url(#SVGID_7_)"
   d="M2.629,64c-1.613,0-2.254,1.133-1.424,2.511l24.529,40.745c0.772,1.288,0.795,3.317,0.119,4.713   l5.963-9.925L8.914,64H2.629z"
   id="path143" />
	
		<radialGradient
   id="SVGID_8_"
   cx="-301.1191"
   cy="6.5938"
   r="33.0584"
   gradientTransform="matrix(0.498 0 0 0.498 172.2891 79.7388)"
   gradientUnits="userSpaceOnUse">
		<stop
   offset="0"
   style="stop-color:#626262"
   id="stop145" />
		<stop
   offset="1"
   style="stop-color:#474747"
   id="stop147" />
	</radialGradient>
	<path
   fill="url(#SVGID_8_)"
   d="M8.914,64l22.903,38.045l3.321-5.53c0.83-1.385,0.83-3.645,0-5.023l-15.004-24.98   C19.305,65.133,17.308,64,15.701,64H8.914z"
   id="path150" />
</g>
<g
   id="g228">
	
	
	
	
		<radialGradient
   id="SVGID_9_"
   cx="-310.265"
   cy="192.9653"
   r="20.1137"
   gradientTransform="matrix(0.498 0 0 0.498 172.2891 79.7388)"
   gradientUnits="userSpaceOnUse">
		<stop
   offset="0"
   style="stop-color:#FFCF4F"
   id="stop200" />
		<stop
   offset="1"
   style="stop-color:#F4C236"
   id="stop202" />
	</radialGradient>
	<path
   fill="url(#SVGID_9_)"
   d="M9.068,187h6.791c1.607,0,3.604-1.128,4.432-2.511l5.72-9.519c0.677-1.396,0.653-3.426-0.119-4.713   l-3.378-5.592L9.068,187z"
   id="path205" />
	
		<radialGradient
   id="SVGID_10_"
   cx="-322.3167"
   cy="182.7508"
   r="27.6582"
   gradientTransform="matrix(0.498 0 0 0.498 172.2891 79.7388)"
   gradientUnits="userSpaceOnUse">
		<stop
   offset="0"
   style="stop-color:#08A960"
   id="stop207" />
		<stop
   offset="1"
   style="stop-color:#07914B"
   id="stop209" />
	</radialGradient>
	<path
   fill="url(#SVGID_10_)"
   d="M16.368,159.514L1.266,184.763C0.683,186.011,1.289,187,2.787,187h6.281l13.446-22.335   l-6.146-10.173C17.197,155.87,17.197,158.13,16.368,159.514"
   id="path212" />
	
		<radialGradient
   id="SVGID_11_"
   cx="-312.8651"
   cy="143.0691"
   r="40.54"
   gradientTransform="matrix(0.498 0 0 0.498 172.2891 79.7388)"
   gradientUnits="userSpaceOnUse">
		<stop
   offset="0"
   style="stop-color:#567FC0"
   id="stop214" />
		<stop
   offset="1"
   style="stop-color:#557FC0"
   id="stop216" />
	</radialGradient>
	<path
   fill="url(#SVGID_11_)"
   d="M2.787,127c-1.613,0-2.254,1.133-1.424,2.511l24.529,40.745c0.772,1.288,0.795,3.317,0.119,4.713   l5.963-9.925L9.072,127H2.787z"
   id="path219" />
	
		<radialGradient
   id="SVGID_12_"
   cx="-300.8011"
   cy="133.1039"
   r="33.0584"
   gradientTransform="matrix(0.498 0 0 0.498 172.2891 79.7388)"
   gradientUnits="userSpaceOnUse">
		<stop
   offset="0"
   style="stop-color:#E14C40"
   id="stop221" />
		<stop
   offset="1"
   style="stop-color:#CD392D"
   id="stop223" />
	</radialGradient>
	<path
   fill="url(#SVGID_12_)"
   d="M9.072,127l22.903,38.045l3.321-5.53c0.83-1.385,0.83-3.645,0-5.023l-15.004-24.981   C19.463,128.133,17.467,127,15.86,127H9.072z"
   id="path226" />
</g>
<text
   xml:space="preserve"
   style="font-style:normal;font-variant:normal;font-weight:normal;font-stretch:normal;font-size:24px;line-height:1.25;font-family:Roboto;-inkscape-font-specification:Roboto;letter-spacing:0px;word-spacing:0px;fill:#4e4e4e;fill-opacity:1;stroke:none"
   x="40.62711"
   y="27.491528"
   id="text239"><tspan
     sodipodi:role="line"
     id="tspan237"
     x="40.62711"
     y="27.491528"
     style="font-style:normal;font-variant:normal;font-weight:bold;font-stretch:normal;font-family:Roboto;-inkscape-font-specification:'Roboto Bold';fill:#4e4e4e;fill-opacity:1">GDG DevFest</tspan></text>
<text
   xml:space="preserve"
   style="font-style:normal;font-variant:normal;font-weight:normal;font-stretch:normal;font-size:22.66666667px;line-height:1.25;font-family:'Product Sans';-inkscape-font-specification:'Product Sans';letter-spacing:0px;word-spacing:0px;fill:#4e4e4e;fill-opacity:1;stroke:none"
   x="41.675068"
   y="48.036522"
   id="text4751"><tspan
     sodipodi:role="line"
     id="tspan4749"
     x="41.675068"
     y="48.036522"
     style="font-style:normal;font-variant:normal;font-weight:normal;font-stretch:normal;font-family:Roboto;-inkscape-font-specification:Roboto;fill:#4e4e4e;fill-opacity:1;">Levante 2018</tspan></text>
<text
   xml:space="preserve"
   style="font-style:normal;font-variant:normal;font-weight:normal;font-stretch:normal;font-size:24px;line-height:1.25;font-family:'Product Sans';-inkscape-font-specification:'Product Sans';letter-spacing:0px;word-spacing:0px;fill:#4e4e4e;fill-opacity:1;stroke:none"
   x="40.611778"
   y="88.835007"
   id="text239-1"><tspan
     sodipodi:role="line"
     id="tspan237-7"
     x="40.611778"
     y="88.835007"
     style="font-style:normal;font-variant:normal;font-weight:bold;font-stretch:normal;font-family:Roboto;-inkscape-font-specification:'Roboto Bold';fill:#4e4e4e;fill-opacity:1">GDG DevFest</tspan></text>
<text
   xml:space="preserve"
   style="font-style:normal;font-variant:normal;font-weight:normal;font-stretch:normal;font-size:22.66666667px;line-height:1.25;font-family:'Product Sans';-inkscape-font-specification:'Product Sans';letter-spacing:0px;word-spacing:0px;fill:#4e4e4e;fill-opacity:1;stroke:none"
   x="41.533489"
   y="111.26384"
   id="text4751-7"><tspan
     sodipodi:role="line"
     id="tspan4749-9"
     x="41.533489"
     y="111.26384"
     style="font-style:normal;font-variant:normal;font-weight:normal;font-stretch:normal;font-family:Roboto;-inkscape-font-specification:Roboto;fill:#4e4e4e;fill-opacity:1;">Levante 2018</tspan></text>
<text
   xml:space="preserve"
   style="font-style:normal;font-variant:normal;font-weight:normal;font-stretch:normal;font-size:24px;line-height:1.25;font-family:'Product Sans';-inkscape-font-specification:'Product Sans';letter-spacing:0px;word-spacing:0px;fill:#e6e6e5;fill-opacity:1;stroke:none"
   x="39.823643"
   y="151.51297"
   id="text239-1-7"><tspan
     sodipodi:role="line"
     id="tspan237-7-6"
     x="39.823643"
     y="151.51297"
     style="font-style:normal;font-variant:normal;font-weight:bold;font-stretch:normal;font-family:Roboto;-inkscape-font-specification:'Roboto Bold';fill:#e6e6e5;fill-opacity:1">GDG DevFest</tspan></text>
<text
   xml:space="preserve"
   style="font-style:normal;font-variant:normal;font-weight:normal;font-stretch:normal;font-size:22.66666667px;line-height:1.25;font-family:'Product Sans';-inkscape-font-specification:'Product Sans';letter-spacing:0px;word-spacing:0px;fill:#e6e6e5;fill-opacity:1;stroke:none"
   x="40.431793"
   y="173.06891"
   id="text4751-7-2"><tspan
     sodipodi:role="line"
     id="tspan4749-9-7"
     x="40.431793"
     y="173.06891"
     style="font-style:normal;font-variant:normal;font-weight:normal;font-stretch:normal;font-family:Roboto;-inkscape-font-specification:Roboto;fill:#e6e6e5;fill-opacity:1;">Levante 2018</tspan></text>
</svg>